<mxfile host="app.diagrams.net" modified="2024-08-12T10:48:37.614Z" agent="Mozilla/5.0 (Windows NT 10.0; Win64; x64) AppleWebKit/537.36 (KHTML, like Gecko) Chrome/127.0.0.0 Safari/537.36" version="24.6.4" etag="mFTch3VJ4DDhejHP9MpQ" type="github">
  <diagram name="Page-1" id="bh7iWdnVdNIQQiG8uE9d">
    <mxGraphModel>
      <root>
        <mxCell id="0" />
        <mxCell id="1" parent="0" />
      </root>
    </mxGraphModel>
  </diagram>
</mxfile>
